<svg xmlns="http://www.w3.org/2000/svg" data-name="Layer 1" viewBox="0 0 89.07 89.09"><path d="M61.86 67.13c1.91 4.91 2.65 9.92 1.38 14.42-2.47 8.77-11.09 10-18.79 3-8.62 8.27-17.66 4.38-19.35-4.76-1.47-8 2.91-17.12 9-24.74-8 6.16-18 10.79-26.39 8.5-8.78-2.4-10-11-3.09-18.78C-3.72 36.18.1 27.1 9.23 25.35c8.08-1.55 17.43 2.93 25.17 9.1-6.3-8-11.1-18.26-8.77-26.76 2.4-8.77 11-10 18.77-3.08C53-3.72 62 .11 63.77 9.23c1.59 8.3-3.19 18-9.63 25.8 8.21-6.43 18.86-11.42 27.53-8.9S91.54 37.29 84.5 45c8.21 8.67 4.25 17.7-4.89 19.32-4.61.82-19.07-8.44-23.93-10.73l6.18 13.59Z" style="fill:#3fad78"/><path d="M31.58 58.81C27 66 24 74.16 26 81.17c2.4 8.78 11 10 18.76 3.09V47.91L58.8 58c7.16 4.62 15.35 7.55 22.36 5.63 8.78-2.4 10-11 3.09-18.76H44.71V4.83C37-2.1 28.32-.85 26 7.92c-1.93 7 1 15.21 5.63 22.37l10.19 14.26-.25.35H4.82c-6.93 7.74-5.68 16.33 3.09 18.76 7 1.92 15.21-1 22.37-5.63l3.84-2.8-2.54 3.54Z" style="fill:#305446"/></svg>